<?xml version="1.0" encoding="UTF-8"?>
<svg width="940px" height="140px" viewBox="0 0 940 140" version="1.1" xmlns="http://www.w3.org/2000/svg" xmlns:xlink="http://www.w3.org/1999/xlink">
    <defs>
        <polygon id="path-1" points="0 0 940 0 940 140 0 140"></polygon>
    </defs>
    <g id="Community-Web---MVP" stroke="none" stroke-width="1" fill="none" fill-rule="evenodd">
        <g id="Home---Posts---HD" transform="translate(-190.000000, -1560.000000)">
            <g id="Group-3" transform="translate(190.000000, 1560.000000)">
                <mask id="mask-2" fill="white">
                    <use xlink:href="#path-1"></use>
                </mask>
                <g id="Clip-2"></g>
                <path d="M142.3428,140 L206.5268,140 L238.5068,45.939 C238.6338,45.677 241.0058,43.236 241.2718,42.97 C241.6648,42.838 241.9268,42.772 242.0578,42.772 C242.1888,42.772 242.4548,42.838 242.8488,42.97 L245.8098,45.939 L265.7108,108.316 L234.5058,108.316 L223.7338,140 L296.0038,140 L296.0098,140 C300.4828,140 304.3038,138.678 307.4618,136.037 C310.6178,133.399 311.8608,131.793 312.1998,126.735 C312.5988,120.789 272.2628,13.464 272.2628,13.464 C271.2068,10.69 264.4988,0 242.2588,0 C220.0178,0 213.5668,10.69 212.2518,13.464 L177.8638,111.339 L177.8638,13.861 C177.8638,10.296 176.2848,7.193 173.1278,4.553 C169.9678,1.915 166.1508,0 161.6778,0 L128.1188,0 C126.8008,0 125.2558,1.385 123.4788,2.971 C121.7028,4.553 120.2858,6.204 119.2358,7.921 L93.1768,73.268 C91.5988,76.436 90.3238,78.018 89.4258,78.018 C88.5268,78.018 86.9768,75.822 85.8728,73.268 L58.6308,7.921 C57.5758,6.204 56.1628,4.553 54.3858,2.971 C52.6098,1.385 51.0608,0 49.7468,0 L16.1878,0 C11.7118,0 7.8968,1.915 4.7388,4.553 C1.5788,7.193 -0.0002,10.296 -0.0002,13.861 L-0.0002,140 L35.5338,140 L35.5478,61.369 C35.6748,61.106 38.0468,58.666 38.3128,58.399 C38.7058,58.268 38.9678,58.202 39.0988,58.202 C39.2298,58.202 39.4958,58.268 39.8888,58.399 L42.8498,61.369 L72.8438,132.675 C74.0288,134.654 75.3758,136.372 76.8908,137.822 C78.4028,139.276 79.8178,140 81.1348,140 L96.5338,140 C97.8458,140 99.2958,139.276 100.8748,137.822 C102.4558,136.372 103.8358,134.654 105.0218,132.675 L135.0258,61.402 L137.9868,58.433 C138.3808,58.301 138.6458,58.235 138.7778,58.235 C138.9078,58.235 139.1708,58.301 139.5638,58.433 C139.8298,58.699 142.2008,61.14 142.3278,61.402 L142.3428,140 Z M320.9728,140 L356.5068,140 L356.5068,0 L320.9728,0 L320.9728,140 Z M488.8508,0 L488.8488,95.586 C488.7218,95.849 486.3538,98.29 486.0868,98.557 C485.6938,98.688 485.5248,98.754 485.3008,98.754 C485.0768,98.754 484.8988,98.71 484.5098,98.557 C484.1568,98.214 481.3458,95.586 481.3458,95.586 L440.8788,8.615 C440.3508,7.822 439.6258,6.929 438.7088,5.938 C437.7868,4.949 436.7998,4.028 435.7468,3.17 C434.6908,2.311 433.6728,1.619 432.6858,1.089 C431.6988,0.563 430.8778,0 430.2178,0 L389.9468,0 C385.4738,0 381.6568,1.619 378.4988,4.257 C375.3408,6.898 373.7598,10 373.7598,13.565 L373.7598,140 L409.2938,140 L409.2938,44.654 C409.4208,44.391 411.7898,41.771 412.0558,41.505 C412.4488,41.373 412.6178,41.308 412.8418,41.308 C413.0658,41.308 413.2438,41.352 413.6328,41.505 C413.9858,41.847 416.7968,44.654 416.7968,44.654 L457.2648,131.389 C458.4488,133.369 460.1918,135.249 462.4938,137.031 C464.7958,138.814 466.6078,140 467.9228,140 L508.1948,140 C512.6668,140 516.4888,138.386 519.6458,135.744 C522.8028,133.105 524.3848,130 524.3848,126.438 L524.3848,0 L488.8508,0 Z M583.6578,106.831 C582.6718,106.305 581.6838,105.675 580.6968,104.947 C579.7098,104.225 578.8548,103.4 578.1338,102.473 C577.4088,101.552 577.0458,100.562 577.0458,99.502 L577.0458,0 L541.5128,0 L541.5128,112.969 C541.5128,116.403 544.5428,125.515 550.5928,131.583 C556.6428,137.652 566.3198,139.997 569.7438,139.997 L641.4308,139.997 C641.4408,139.985 641.4218,140.008 641.4308,139.997 L641.4308,107.821 L585.9288,107.821 C585.4008,107.689 584.6458,107.36 583.6578,106.831 L583.6578,106.831 Z M605.9018,90.598 L641.4348,90.598 L641.4348,0 L605.9018,0 L605.9018,90.598 Z M804.6188,4.257 C801.4608,1.619 797.6438,0 793.1718,0 L752.8998,0 C752.2398,0 751.4188,0.563 750.4318,1.089 C749.4448,1.619 748.4268,2.311 747.3708,3.17 C746.3178,4.028 745.3308,4.949 744.4088,5.938 C743.4908,6.929 742.7668,7.822 742.2388,8.615 L701.7718,95.586 C701.7718,95.586 698.9598,98.214 698.6078,98.557 C698.2178,98.71 698.0408,98.754 697.8168,98.754 C697.5928,98.754 697.4238,98.688 697.0298,98.557 C696.7638,98.29 694.3958,95.849 694.2688,95.586 L694.2688,31.684 L714.3048,31.684 L729.0468,0 L674.9288,0 L674.9228,0 C670.4498,0 666.6288,1.322 663.4708,3.963 C660.3148,6.601 659.0718,8.207 658.7328,13.265 L658.7328,126.438 C658.7328,130 660.3138,133.105 663.4718,135.744 C666.6298,138.386 670.4498,140 674.9228,140 L715.1948,140 C716.5098,140 718.3218,138.814 720.6238,137.031 C722.9258,135.249 724.6688,133.369 725.8518,131.389 L766.3208,44.654 C766.3208,44.654 769.1328,41.847 769.4848,41.505 C769.8738,41.352 770.0518,41.308 770.2758,41.308 C770.4998,41.308 770.6688,41.373 771.0618,41.505 C771.3278,41.771 773.6968,44.391 773.8238,44.654 L773.8238,140 L809.3578,140 L809.3578,13.565 C809.3578,10 807.7768,6.898 804.6188,4.257 L804.6188,4.257 Z M939.9998,31.925 C937.3628,26.383 934.4708,21.32 931.3138,16.238 C928.1548,11.156 924.4698,5.546 920.2598,0 L854.7168,0 C851.2928,0 841.9978,1.736 835.4668,8.288 C828.9348,14.84 826.4858,23.599 826.4858,27.029 L826.4858,112.972 C826.4858,116.406 829.3408,125.341 835.5658,131.586 C841.7918,137.831 851.2928,140 854.7168,140 L920.4558,140 C924.7978,135.908 928.5798,130.662 931.8068,124.853 C935.0298,119.044 937.7598,113.111 939.9998,107.568 L870.9028,107.823 C870.3748,107.692 869.6188,107.363 868.6318,106.833 C867.6448,106.308 866.6578,105.677 865.6708,104.95 C864.6838,104.227 863.8278,103.403 863.1068,102.475 C862.3818,101.554 862.0198,100.564 862.0198,99.504 L862.0198,85.844 L933.2868,85.844 L933.2868,53.959 L862.0198,53.959 L862.0198,40.496 C862.0198,39.44 862.3468,38.485 863.0068,37.623 C863.6618,36.768 864.4518,35.975 865.3738,35.248 C866.2958,34.524 867.2818,33.895 868.3348,33.368 C869.3878,32.842 870.2438,32.443 870.9028,32.177 L939.9998,31.925 Z" id="Fill-1" fill="#ffffff" mask="url(#mask-2)"></path>
            </g>
        </g>
    </g>
</svg>