<svg width="302" height="346" viewBox="0 0 302 346" fill="none" xmlns="http://www.w3.org/2000/svg">
<g opacity="0.4">
<path d="M302 2.23707V3.72845H300.047V5.96552H298.746V3.72845H296.793V2.23707H298.746V0H300.047V2.23707H302Z" fill="white"/>
<path d="M302 20.1336V21.625H300.047V23.8621H298.746V21.625H296.793V20.1336H298.746V17.8965H300.047V20.1336H302Z" fill="white"/>
<path d="M302 38.0302V39.5216H300.047V41.7586H298.746V39.5216H296.793V38.0302H298.746V35.7931H300.047V38.0302H302Z" fill="white"/>
<path d="M302 55.9267V57.418H300.047V59.6551H298.746V57.418H296.793V55.9267H298.746V53.6896H300.047V55.9267H302Z" fill="white"/>
<path d="M302 73.8233V75.3147H300.047V77.5517H298.746V75.3147H296.793V73.8233H298.746V71.5862H300.047V73.8233H302Z" fill="white"/>
<path d="M302 91.7198V93.2112H300.047V95.4482H298.746V93.2112H296.793V91.7198H298.746V89.4827H300.047V91.7198H302Z" fill="white"/>
<path d="M302 109.616V111.108H300.047V113.345H298.746V111.108H296.793V109.616H298.746V107.379H300.047V109.616H302Z" fill="white"/>
<path d="M302 127.513V129.004H300.047V131.241H298.746V129.004H296.793V127.513H298.746V125.276H300.047V127.513H302Z" fill="white"/>
<path d="M302 145.409V146.901H300.047V149.138H298.746V146.901H296.793V145.409H298.746V143.172H300.047V145.409H302Z" fill="white"/>
<path d="M302 163.306V164.797H300.047V167.034H298.746V164.797H296.793V163.306H298.746V161.069H300.047V163.306H302Z" fill="white"/>
<path d="M302 181.203V182.694H300.047V184.931H298.746V182.694H296.793V181.203H298.746V178.965H300.047V181.203H302Z" fill="white"/>
<path d="M302 199.099V200.591H300.047V202.828H298.746V200.591H296.793V199.099H298.746V196.862H300.047V199.099H302Z" fill="white"/>
<path d="M302 216.996V218.487H300.047V220.724H298.746V218.487H296.793V216.996H298.746V214.759H300.047V216.996H302Z" fill="white"/>
<path d="M302 234.892V236.384H300.047V238.621H298.746V236.384H296.793V234.892H298.746V232.655H300.047V234.892H302Z" fill="white"/>
<path d="M302 252.789V254.28H300.047V256.517H298.746V254.28H296.793V252.789H298.746V250.552H300.047V252.789H302Z" fill="white"/>
<path d="M302 270.685V272.177H300.047V274.414H298.746V272.177H296.793V270.685H298.746V268.448H300.047V270.685H302Z" fill="white"/>
<path d="M302 288.582V290.073H300.047V292.31H298.746V290.073H296.793V288.582H298.746V286.345H300.047V288.582H302Z" fill="white"/>
<path d="M302 306.478V307.97H300.047V310.207H298.746V307.97H296.793V306.478H298.746V304.241H300.047V306.478H302Z" fill="white"/>
<path d="M302 324.375V325.866H300.047V328.103H298.746V325.866H296.793V324.375H298.746V322.138H300.047V324.375H302Z" fill="white"/>
<path d="M302 342.272V343.763H300.047V346H298.746V343.763H296.793V342.272H298.746V340.035H300.047V342.272H302Z" fill="white"/>
<path d="M286.38 2.23707V3.72845H284.427V5.96552H283.125V3.72845H281.173V2.23707H283.125V0H284.427V2.23707H286.38Z" fill="white"/>
<path d="M286.38 20.1336V21.625H284.427V23.8621H283.125V21.625H281.173V20.1336H283.125V17.8965H284.427V20.1336H286.38Z" fill="white"/>
<path d="M286.38 38.0302V39.5216H284.427V41.7586H283.125V39.5216H281.173V38.0302H283.125V35.7931H284.427V38.0302H286.38Z" fill="white"/>
<path d="M286.38 55.9267V57.418H284.427V59.6551H283.125V57.418H281.173V55.9267H283.125V53.6896H284.427V55.9267H286.38Z" fill="white"/>
<path d="M286.38 73.8233V75.3147H284.427V77.5517H283.125V75.3147H281.173V73.8233H283.125V71.5862H284.427V73.8233H286.38Z" fill="white"/>
<path d="M286.38 91.7198V93.2112H284.427V95.4482H283.125V93.2112H281.173V91.7198H283.125V89.4827H284.427V91.7198H286.38Z" fill="white"/>
<path d="M286.38 109.616V111.108H284.427V113.345H283.125V111.108H281.173V109.616H283.125V107.379H284.427V109.616H286.38Z" fill="white"/>
<path d="M286.38 127.513V129.004H284.427V131.241H283.125V129.004H281.173V127.513H283.125V125.276H284.427V127.513H286.38Z" fill="white"/>
<path d="M286.38 145.409V146.901H284.427V149.138H283.125V146.901H281.173V145.409H283.125V143.172H284.427V145.409H286.38Z" fill="white"/>
<path d="M286.38 163.306V164.797H284.427V167.034H283.125V164.797H281.173V163.306H283.125V161.069H284.427V163.306H286.38Z" fill="white"/>
<path d="M286.38 181.203V182.694H284.427V184.931H283.125V182.694H281.173V181.203H283.125V178.965H284.427V181.203H286.38Z" fill="white"/>
<path d="M286.38 199.099V200.591H284.427V202.828H283.125V200.591H281.173V199.099H283.125V196.862H284.427V199.099H286.38Z" fill="white"/>
<path d="M286.38 216.996V218.487H284.427V220.724H283.125V218.487H281.173V216.996H283.125V214.759H284.427V216.996H286.38Z" fill="white"/>
<path d="M286.38 234.892V236.384H284.427V238.621H283.125V236.384H281.173V234.892H283.125V232.655H284.427V234.892H286.38Z" fill="white"/>
<path d="M286.38 252.789V254.28H284.427V256.517H283.125V254.28H281.173V252.789H283.125V250.552H284.427V252.789H286.38Z" fill="white"/>
<path d="M286.38 270.685V272.177H284.427V274.414H283.125V272.177H281.173V270.685H283.125V268.448H284.427V270.685H286.38Z" fill="white"/>
<path d="M286.38 288.582V290.073H284.427V292.31H283.125V290.073H281.173V288.582H283.125V286.345H284.427V288.582H286.38Z" fill="white"/>
<path d="M286.38 306.478V307.97H284.427V310.207H283.125V307.97H281.173V306.478H283.125V304.241H284.427V306.478H286.38Z" fill="white"/>
<path d="M286.38 324.375V325.866H284.427V328.103H283.125V325.866H281.173V324.375H283.125V322.138H284.427V324.375H286.38Z" fill="white"/>
<path d="M286.38 342.272V343.763H284.427V346H283.125V343.763H281.173V342.272H283.125V340.035H284.427V342.272H286.38Z" fill="white"/>
<path d="M270.759 2.23707V3.72845H268.806V5.96552H267.504V3.72845H265.552V2.23707H267.504V0H268.806V2.23707H270.759Z" fill="white"/>
<path d="M270.759 20.1336V21.625H268.806V23.8621H267.504V21.625H265.552V20.1336H267.504V17.8965H268.806V20.1336H270.759Z" fill="white"/>
<path d="M270.759 38.0302V39.5216H268.806V41.7586H267.504V39.5216H265.552V38.0302H267.504V35.7931H268.806V38.0302H270.759Z" fill="white"/>
<path d="M270.759 55.9267V57.418H268.806V59.6551H267.504V57.418H265.552V55.9267H267.504V53.6896H268.806V55.9267H270.759Z" fill="white"/>
<path d="M270.759 73.8233V75.3147H268.806V77.5517H267.504V75.3147H265.552V73.8233H267.504V71.5862H268.806V73.8233H270.759Z" fill="white"/>
<path d="M270.759 91.7198V93.2112H268.806V95.4482H267.504V93.2112H265.552V91.7198H267.504V89.4827H268.806V91.7198H270.759Z" fill="white"/>
<path d="M270.759 109.616V111.108H268.806V113.345H267.504V111.108H265.552V109.616H267.504V107.379H268.806V109.616H270.759Z" fill="white"/>
<path d="M270.759 127.513V129.004H268.806V131.241H267.504V129.004H265.552V127.513H267.504V125.276H268.806V127.513H270.759Z" fill="white"/>
<path d="M270.759 145.409V146.901H268.806V149.138H267.504V146.901H265.552V145.409H267.504V143.172H268.806V145.409H270.759Z" fill="white"/>
<path d="M270.759 163.306V164.797H268.806V167.034H267.504V164.797H265.552V163.306H267.504V161.069H268.806V163.306H270.759Z" fill="white"/>
<path d="M270.759 181.203V182.694H268.806V184.931H267.504V182.694H265.552V181.203H267.504V178.965H268.806V181.203H270.759Z" fill="white"/>
<path d="M270.759 199.099V200.591H268.806V202.828H267.504V200.591H265.552V199.099H267.504V196.862H268.806V199.099H270.759Z" fill="white"/>
<path d="M270.759 216.996V218.487H268.806V220.724H267.504V218.487H265.552V216.996H267.504V214.759H268.806V216.996H270.759Z" fill="white"/>
<path d="M270.759 234.892V236.384H268.806V238.621H267.504V236.384H265.552V234.892H267.504V232.655H268.806V234.892H270.759Z" fill="white"/>
<path d="M270.759 252.789V254.28H268.806V256.517H267.504V254.28H265.552V252.789H267.504V250.552H268.806V252.789H270.759Z" fill="white"/>
<path d="M270.759 270.685V272.177H268.806V274.414H267.504V272.177H265.552V270.685H267.504V268.448H268.806V270.685H270.759Z" fill="white"/>
<path d="M270.759 288.582V290.073H268.806V292.31H267.504V290.073H265.552V288.582H267.504V286.345H268.806V288.582H270.759Z" fill="white"/>
<path d="M270.759 306.478V307.97H268.806V310.207H267.504V307.97H265.552V306.478H267.504V304.241H268.806V306.478H270.759Z" fill="white"/>
<path d="M270.759 324.375V325.866H268.806V328.103H267.504V325.866H265.552V324.375H267.504V322.138H268.806V324.375H270.759Z" fill="white"/>
<path d="M270.759 342.272V343.763H268.806V346H267.504V343.763H265.552V342.272H267.504V340.035H268.806V342.272H270.759Z" fill="white"/>
<path d="M255.138 2.23707V3.72845H253.186V5.96552H251.884V3.72845H249.931V2.23707H251.884V0H253.186V2.23707H255.138Z" fill="white"/>
<path d="M255.138 20.1336V21.625H253.186V23.8621H251.884V21.625H249.931V20.1336H251.884V17.8965H253.186V20.1336H255.138Z" fill="white"/>
<path d="M255.138 38.0302V39.5216H253.186V41.7586H251.884V39.5216H249.931V38.0302H251.884V35.7931H253.186V38.0302H255.138Z" fill="white"/>
<path d="M255.138 55.9267V57.418H253.186V59.6551H251.884V57.418H249.931V55.9267H251.884V53.6896H253.186V55.9267H255.138Z" fill="white"/>
<path d="M255.138 73.8233V75.3147H253.186V77.5517H251.884V75.3147H249.931V73.8233H251.884V71.5862H253.186V73.8233H255.138Z" fill="white"/>
<path d="M255.138 91.7198V93.2112H253.186V95.4482H251.884V93.2112H249.931V91.7198H251.884V89.4827H253.186V91.7198H255.138Z" fill="white"/>
<path d="M255.138 109.616V111.108H253.186V113.345H251.884V111.108H249.931V109.616H251.884V107.379H253.186V109.616H255.138Z" fill="white"/>
<path d="M255.138 127.513V129.004H253.186V131.241H251.884V129.004H249.931V127.513H251.884V125.276H253.186V127.513H255.138Z" fill="white"/>
<path d="M255.138 145.409V146.901H253.186V149.138H251.884V146.901H249.931V145.409H251.884V143.172H253.186V145.409H255.138Z" fill="white"/>
<path d="M255.138 163.306V164.797H253.186V167.034H251.884V164.797H249.931V163.306H251.884V161.069H253.186V163.306H255.138Z" fill="white"/>
<path d="M255.138 181.203V182.694H253.186V184.931H251.884V182.694H249.931V181.203H251.884V178.965H253.186V181.203H255.138Z" fill="white"/>
<path d="M255.138 199.099V200.591H253.186V202.828H251.884V200.591H249.931V199.099H251.884V196.862H253.186V199.099H255.138Z" fill="white"/>
<path d="M255.138 216.996V218.487H253.186V220.724H251.884V218.487H249.931V216.996H251.884V214.759H253.186V216.996H255.138Z" fill="white"/>
<path d="M255.138 234.892V236.384H253.186V238.621H251.884V236.384H249.931V234.892H251.884V232.655H253.186V234.892H255.138Z" fill="white"/>
<path d="M255.138 252.789V254.28H253.186V256.517H251.884V254.28H249.931V252.789H251.884V250.552H253.186V252.789H255.138Z" fill="white"/>
<path d="M255.138 270.685V272.177H253.186V274.414H251.884V272.177H249.931V270.685H251.884V268.448H253.186V270.685H255.138Z" fill="white"/>
<path d="M255.138 288.582V290.073H253.186V292.31H251.884V290.073H249.931V288.582H251.884V286.345H253.186V288.582H255.138Z" fill="white"/>
<path d="M255.138 306.478V307.97H253.186V310.207H251.884V307.97H249.931V306.478H251.884V304.241H253.186V306.478H255.138Z" fill="white"/>
<path d="M255.138 324.375V325.866H253.186V328.103H251.884V325.866H249.931V324.375H251.884V322.138H253.186V324.375H255.138Z" fill="white"/>
<path d="M255.138 342.272V343.763H253.186V346H251.884V343.763H249.931V342.272H251.884V340.035H253.186V342.272H255.138Z" fill="white"/>
<path d="M239.518 2.23707V3.72845H237.565V5.96552H236.263V3.72845H234.311V2.23707H236.263V0H237.565V2.23707H239.518Z" fill="white"/>
<path d="M239.518 20.1336V21.625H237.565V23.8621H236.263V21.625H234.311V20.1336H236.263V17.8965H237.565V20.1336H239.518Z" fill="white"/>
<path d="M239.518 38.0302V39.5216H237.565V41.7586H236.263V39.5216H234.311V38.0302H236.263V35.7931H237.565V38.0302H239.518Z" fill="white"/>
<path d="M239.518 55.9267V57.418H237.565V59.6551H236.263V57.418H234.311V55.9267H236.263V53.6896H237.565V55.9267H239.518Z" fill="white"/>
<path d="M239.518 73.8233V75.3147H237.565V77.5517H236.263V75.3147H234.311V73.8233H236.263V71.5862H237.565V73.8233H239.518Z" fill="white"/>
<path d="M239.518 91.7198V93.2112H237.565V95.4482H236.263V93.2112H234.311V91.7198H236.263V89.4827H237.565V91.7198H239.518Z" fill="white"/>
<path d="M239.518 109.616V111.108H237.565V113.345H236.263V111.108H234.311V109.616H236.263V107.379H237.565V109.616H239.518Z" fill="white"/>
<path d="M239.518 127.513V129.004H237.565V131.241H236.263V129.004H234.311V127.513H236.263V125.276H237.565V127.513H239.518Z" fill="white"/>
<path d="M239.518 145.409V146.901H237.565V149.138H236.263V146.901H234.311V145.409H236.263V143.172H237.565V145.409H239.518Z" fill="white"/>
<path d="M239.518 163.306V164.797H237.565V167.034H236.263V164.797H234.311V163.306H236.263V161.069H237.565V163.306H239.518Z" fill="white"/>
<path d="M239.518 181.203V182.694H237.565V184.931H236.263V182.694H234.311V181.203H236.263V178.965H237.565V181.203H239.518Z" fill="white"/>
<path d="M239.518 199.099V200.591H237.565V202.828H236.263V200.591H234.311V199.099H236.263V196.862H237.565V199.099H239.518Z" fill="white"/>
<path d="M239.518 216.996V218.487H237.565V220.724H236.263V218.487H234.311V216.996H236.263V214.759H237.565V216.996H239.518Z" fill="white"/>
<path d="M239.518 234.892V236.384H237.565V238.621H236.263V236.384H234.311V234.892H236.263V232.655H237.565V234.892H239.518Z" fill="white"/>
<path d="M239.518 252.789V254.28H237.565V256.517H236.263V254.28H234.311V252.789H236.263V250.552H237.565V252.789H239.518Z" fill="white"/>
<path d="M239.518 270.685V272.177H237.565V274.414H236.263V272.177H234.311V270.685H236.263V268.448H237.565V270.685H239.518Z" fill="white"/>
<path d="M239.518 288.582V290.073H237.565V292.31H236.263V290.073H234.311V288.582H236.263V286.345H237.565V288.582H239.518Z" fill="white"/>
<path d="M239.518 306.478V307.97H237.565V310.207H236.263V307.97H234.311V306.478H236.263V304.241H237.565V306.478H239.518Z" fill="white"/>
<path d="M239.518 324.375V325.866H237.565V328.103H236.263V325.866H234.311V324.375H236.263V322.138H237.565V324.375H239.518Z" fill="white"/>
<path d="M239.518 342.272V343.763H237.565V346H236.263V343.763H234.311V342.272H236.263V340.035H237.565V342.272H239.518Z" fill="white"/>
<path d="M223.897 2.23707V3.72845H221.944V5.96552H220.642V3.72845H218.69V2.23707H220.642V0H221.944V2.23707H223.897Z" fill="white"/>
<path d="M223.897 20.1336V21.625H221.944V23.8621H220.642V21.625H218.69V20.1336H220.642V17.8965H221.944V20.1336H223.897Z" fill="white"/>
<path d="M223.897 38.0302V39.5216H221.944V41.7586H220.642V39.5216H218.69V38.0302H220.642V35.7931H221.944V38.0302H223.897Z" fill="white"/>
<path d="M223.897 55.9267V57.418H221.944V59.6551H220.642V57.418H218.69V55.9267H220.642V53.6896H221.944V55.9267H223.897Z" fill="white"/>
<path d="M223.897 73.8233V75.3147H221.944V77.5517H220.642V75.3147H218.69V73.8233H220.642V71.5862H221.944V73.8233H223.897Z" fill="white"/>
<path d="M223.897 91.7198V93.2112H221.944V95.4482H220.642V93.2112H218.69V91.7198H220.642V89.4827H221.944V91.7198H223.897Z" fill="white"/>
<path d="M223.897 109.616V111.108H221.944V113.345H220.642V111.108H218.69V109.616H220.642V107.379H221.944V109.616H223.897Z" fill="white"/>
<path d="M223.897 127.513V129.004H221.944V131.241H220.642V129.004H218.69V127.513H220.642V125.276H221.944V127.513H223.897Z" fill="white"/>
<path d="M223.897 145.409V146.901H221.944V149.138H220.642V146.901H218.69V145.409H220.642V143.172H221.944V145.409H223.897Z" fill="white"/>
<path d="M223.897 163.306V164.797H221.944V167.034H220.642V164.797H218.69V163.306H220.642V161.069H221.944V163.306H223.897Z" fill="white"/>
<path d="M223.897 181.203V182.694H221.944V184.931H220.642V182.694H218.69V181.203H220.642V178.965H221.944V181.203H223.897Z" fill="white"/>
<path d="M223.897 199.099V200.591H221.944V202.828H220.642V200.591H218.69V199.099H220.642V196.862H221.944V199.099H223.897Z" fill="white"/>
<path d="M223.897 216.996V218.487H221.944V220.724H220.642V218.487H218.69V216.996H220.642V214.759H221.944V216.996H223.897Z" fill="white"/>
<path d="M223.897 234.892V236.384H221.944V238.621H220.642V236.384H218.69V234.892H220.642V232.655H221.944V234.892H223.897Z" fill="white"/>
<path d="M223.897 252.789V254.28H221.944V256.517H220.642V254.28H218.69V252.789H220.642V250.552H221.944V252.789H223.897Z" fill="white"/>
<path d="M223.897 270.685V272.177H221.944V274.414H220.642V272.177H218.69V270.685H220.642V268.448H221.944V270.685H223.897Z" fill="white"/>
<path d="M223.897 288.582V290.073H221.944V292.31H220.642V290.073H218.69V288.582H220.642V286.345H221.944V288.582H223.897Z" fill="white"/>
<path d="M223.897 306.478V307.97H221.944V310.207H220.642V307.97H218.69V306.478H220.642V304.241H221.944V306.478H223.897Z" fill="white"/>
<path d="M223.897 324.375V325.866H221.944V328.103H220.642V325.866H218.69V324.375H220.642V322.138H221.944V324.375H223.897Z" fill="white"/>
<path d="M223.897 342.272V343.763H221.944V346H220.642V343.763H218.69V342.272H220.642V340.035H221.944V342.272H223.897Z" fill="white"/>
<path d="M208.276 2.23707V3.72845H206.324V5.96552H205.022V3.72845H203.069V2.23707H205.022V0H206.324V2.23707H208.276Z" fill="white"/>
<path d="M208.276 20.1336V21.625H206.324V23.8621H205.022V21.625H203.069V20.1336H205.022V17.8965H206.324V20.1336H208.276Z" fill="white"/>
<path d="M208.276 38.0302V39.5216H206.324V41.7586H205.022V39.5216H203.069V38.0302H205.022V35.7931H206.324V38.0302H208.276Z" fill="white"/>
<path d="M208.276 55.9267V57.418H206.324V59.6551H205.022V57.418H203.069V55.9267H205.022V53.6896H206.324V55.9267H208.276Z" fill="white"/>
<path d="M208.276 73.8233V75.3147H206.324V77.5517H205.022V75.3147H203.069V73.8233H205.022V71.5862H206.324V73.8233H208.276Z" fill="white"/>
<path d="M208.276 91.7198V93.2112H206.324V95.4482H205.022V93.2112H203.069V91.7198H205.022V89.4827H206.324V91.7198H208.276Z" fill="white"/>
<path d="M208.276 109.616V111.108H206.324V113.345H205.022V111.108H203.069V109.616H205.022V107.379H206.324V109.616H208.276Z" fill="white"/>
<path d="M208.276 127.513V129.004H206.324V131.241H205.022V129.004H203.069V127.513H205.022V125.276H206.324V127.513H208.276Z" fill="white"/>
<path d="M208.276 145.409V146.901H206.324V149.138H205.022V146.901H203.069V145.409H205.022V143.172H206.324V145.409H208.276Z" fill="white"/>
<path d="M208.276 163.306V164.797H206.324V167.034H205.022V164.797H203.069V163.306H205.022V161.069H206.324V163.306H208.276Z" fill="white"/>
<path d="M208.276 181.203V182.694H206.324V184.931H205.022V182.694H203.069V181.203H205.022V178.965H206.324V181.203H208.276Z" fill="white"/>
<path d="M208.276 199.099V200.591H206.324V202.828H205.022V200.591H203.069V199.099H205.022V196.862H206.324V199.099H208.276Z" fill="white"/>
<path d="M208.276 216.996V218.487H206.324V220.724H205.022V218.487H203.069V216.996H205.022V214.759H206.324V216.996H208.276Z" fill="white"/>
<path d="M208.276 234.892V236.384H206.324V238.621H205.022V236.384H203.069V234.892H205.022V232.655H206.324V234.892H208.276Z" fill="white"/>
<path d="M208.276 252.789V254.28H206.324V256.517H205.022V254.28H203.069V252.789H205.022V250.552H206.324V252.789H208.276Z" fill="white"/>
<path d="M208.276 270.685V272.177H206.324V274.414H205.022V272.177H203.069V270.685H205.022V268.448H206.324V270.685H208.276Z" fill="white"/>
<path d="M208.276 288.582V290.073H206.324V292.31H205.022V290.073H203.069V288.582H205.022V286.345H206.324V288.582H208.276Z" fill="white"/>
<path d="M208.276 306.478V307.97H206.324V310.207H205.022V307.97H203.069V306.478H205.022V304.241H206.324V306.478H208.276Z" fill="white"/>
<path d="M208.276 324.375V325.866H206.324V328.103H205.022V325.866H203.069V324.375H205.022V322.138H206.324V324.375H208.276Z" fill="white"/>
<path d="M208.276 342.272V343.763H206.324V346H205.022V343.763H203.069V342.272H205.022V340.035H206.324V342.272H208.276Z" fill="white"/>
<path d="M192.655 2.23707V3.72845H190.703V5.96552H189.401V3.72845H187.448V2.23707H189.401V0H190.703V2.23707H192.655Z" fill="white"/>
<path d="M192.655 20.1336V21.625H190.703V23.8621H189.401V21.625H187.448V20.1336H189.401V17.8965H190.703V20.1336H192.655Z" fill="white"/>
<path d="M192.655 38.0302V39.5216H190.703V41.7586H189.401V39.5216H187.448V38.0302H189.401V35.7931H190.703V38.0302H192.655Z" fill="white"/>
<path d="M192.655 55.9267V57.418H190.703V59.6551H189.401V57.418H187.448V55.9267H189.401V53.6896H190.703V55.9267H192.655Z" fill="white"/>
<path d="M192.655 73.8233V75.3147H190.703V77.5517H189.401V75.3147H187.448V73.8233H189.401V71.5862H190.703V73.8233H192.655Z" fill="white"/>
<path d="M192.655 91.7198V93.2112H190.703V95.4482H189.401V93.2112H187.448V91.7198H189.401V89.4827H190.703V91.7198H192.655Z" fill="white"/>
<path d="M192.655 109.616V111.108H190.703V113.345H189.401V111.108H187.448V109.616H189.401V107.379H190.703V109.616H192.655Z" fill="white"/>
<path d="M192.655 127.513V129.004H190.703V131.241H189.401V129.004H187.448V127.513H189.401V125.276H190.703V127.513H192.655Z" fill="white"/>
<path d="M192.655 145.409V146.901H190.703V149.138H189.401V146.901H187.448V145.409H189.401V143.172H190.703V145.409H192.655Z" fill="white"/>
<path d="M192.655 163.306V164.797H190.703V167.034H189.401V164.797H187.448V163.306H189.401V161.069H190.703V163.306H192.655Z" fill="white"/>
<path d="M192.655 181.203V182.694H190.703V184.931H189.401V182.694H187.448V181.203H189.401V178.965H190.703V181.203H192.655Z" fill="white"/>
<path d="M192.655 199.099V200.591H190.703V202.828H189.401V200.591H187.448V199.099H189.401V196.862H190.703V199.099H192.655Z" fill="white"/>
<path d="M192.655 216.996V218.487H190.703V220.724H189.401V218.487H187.448V216.996H189.401V214.759H190.703V216.996H192.655Z" fill="white"/>
<path d="M192.655 234.892V236.384H190.703V238.621H189.401V236.384H187.448V234.892H189.401V232.655H190.703V234.892H192.655Z" fill="white"/>
<path d="M192.655 252.789V254.28H190.703V256.517H189.401V254.28H187.448V252.789H189.401V250.552H190.703V252.789H192.655Z" fill="white"/>
<path d="M192.655 270.685V272.177H190.703V274.414H189.401V272.177H187.448V270.685H189.401V268.448H190.703V270.685H192.655Z" fill="white"/>
<path d="M192.655 288.582V290.073H190.703V292.31H189.401V290.073H187.448V288.582H189.401V286.345H190.703V288.582H192.655Z" fill="white"/>
<path d="M192.655 306.478V307.97H190.703V310.207H189.401V307.97H187.448V306.478H189.401V304.241H190.703V306.478H192.655Z" fill="white"/>
<path d="M192.655 324.375V325.866H190.703V328.103H189.401V325.866H187.448V324.375H189.401V322.138H190.703V324.375H192.655Z" fill="white"/>
<path d="M192.655 342.272V343.763H190.703V346H189.401V343.763H187.448V342.272H189.401V340.035H190.703V342.272H192.655Z" fill="white"/>
<path d="M177.035 2.23707V3.72845H175.082V5.96552H173.78V3.72845H171.828V2.23707H173.78V0H175.082V2.23707H177.035Z" fill="white"/>
<path d="M177.035 20.1336V21.625H175.082V23.8621H173.78V21.625H171.828V20.1336H173.78V17.8965H175.082V20.1336H177.035Z" fill="white"/>
<path d="M177.035 38.0302V39.5216H175.082V41.7586H173.78V39.5216H171.828V38.0302H173.78V35.7931H175.082V38.0302H177.035Z" fill="white"/>
<path d="M177.035 55.9267V57.418H175.082V59.6551H173.78V57.418H171.828V55.9267H173.78V53.6896H175.082V55.9267H177.035Z" fill="white"/>
<path d="M177.035 73.8233V75.3147H175.082V77.5517H173.78V75.3147H171.828V73.8233H173.78V71.5862H175.082V73.8233H177.035Z" fill="white"/>
<path d="M177.035 91.7198V93.2112H175.082V95.4482H173.78V93.2112H171.828V91.7198H173.78V89.4827H175.082V91.7198H177.035Z" fill="white"/>
<path d="M177.035 109.616V111.108H175.082V113.345H173.78V111.108H171.828V109.616H173.78V107.379H175.082V109.616H177.035Z" fill="white"/>
<path d="M177.035 127.513V129.004H175.082V131.241H173.78V129.004H171.828V127.513H173.78V125.276H175.082V127.513H177.035Z" fill="white"/>
<path d="M177.035 145.409V146.901H175.082V149.138H173.78V146.901H171.828V145.409H173.78V143.172H175.082V145.409H177.035Z" fill="white"/>
<path d="M177.035 163.306V164.797H175.082V167.034H173.78V164.797H171.828V163.306H173.78V161.069H175.082V163.306H177.035Z" fill="white"/>
<path d="M177.035 181.203V182.694H175.082V184.931H173.78V182.694H171.828V181.203H173.78V178.965H175.082V181.203H177.035Z" fill="white"/>
<path d="M177.035 199.099V200.591H175.082V202.828H173.78V200.591H171.828V199.099H173.78V196.862H175.082V199.099H177.035Z" fill="white"/>
<path d="M177.035 216.996V218.487H175.082V220.724H173.78V218.487H171.828V216.996H173.78V214.759H175.082V216.996H177.035Z" fill="white"/>
<path d="M177.035 234.892V236.384H175.082V238.621H173.78V236.384H171.828V234.892H173.78V232.655H175.082V234.892H177.035Z" fill="white"/>
<path d="M177.035 252.789V254.28H175.082V256.517H173.78V254.28H171.828V252.789H173.78V250.552H175.082V252.789H177.035Z" fill="white"/>
<path d="M177.035 270.685V272.177H175.082V274.414H173.78V272.177H171.828V270.685H173.78V268.448H175.082V270.685H177.035Z" fill="white"/>
<path d="M177.035 288.582V290.073H175.082V292.31H173.78V290.073H171.828V288.582H173.78V286.345H175.082V288.582H177.035Z" fill="white"/>
<path d="M177.035 306.478V307.97H175.082V310.207H173.78V307.97H171.828V306.478H173.78V304.241H175.082V306.478H177.035Z" fill="white"/>
<path d="M177.035 324.375V325.866H175.082V328.103H173.78V325.866H171.828V324.375H173.78V322.138H175.082V324.375H177.035Z" fill="white"/>
<path d="M177.035 342.272V343.763H175.082V346H173.78V343.763H171.828V342.272H173.78V340.035H175.082V342.272H177.035Z" fill="white"/>
<path d="M161.414 2.23707V3.72845H159.461V5.96552H158.16V3.72845H156.207V2.23707H158.16V0H159.461V2.23707H161.414Z" fill="white"/>
<path d="M161.414 20.1336V21.625H159.461V23.8621H158.16V21.625H156.207V20.1336H158.16V17.8965H159.461V20.1336H161.414Z" fill="white"/>
<path d="M161.414 38.0302V39.5216H159.461V41.7586H158.16V39.5216H156.207V38.0302H158.16V35.7931H159.461V38.0302H161.414Z" fill="white"/>
<path d="M161.414 55.9267V57.418H159.461V59.6551H158.16V57.418H156.207V55.9267H158.16V53.6896H159.461V55.9267H161.414Z" fill="white"/>
<path d="M161.414 73.8233V75.3147H159.461V77.5517H158.16V75.3147H156.207V73.8233H158.16V71.5862H159.461V73.8233H161.414Z" fill="white"/>
<path d="M161.414 91.7198V93.2112H159.461V95.4482H158.16V93.2112H156.207V91.7198H158.16V89.4827H159.461V91.7198H161.414Z" fill="white"/>
<path d="M161.414 109.616V111.108H159.461V113.345H158.16V111.108H156.207V109.616H158.16V107.379H159.461V109.616H161.414Z" fill="white"/>
<path d="M161.414 127.513V129.004H159.461V131.241H158.16V129.004H156.207V127.513H158.16V125.276H159.461V127.513H161.414Z" fill="white"/>
<path d="M161.414 145.409V146.901H159.461V149.138H158.16V146.901H156.207V145.409H158.16V143.172H159.461V145.409H161.414Z" fill="white"/>
<path d="M161.414 163.306V164.797H159.461V167.034H158.16V164.797H156.207V163.306H158.16V161.069H159.461V163.306H161.414Z" fill="white"/>
<path d="M161.414 181.203V182.694H159.461V184.931H158.16V182.694H156.207V181.203H158.16V178.965H159.461V181.203H161.414Z" fill="white"/>
<path d="M161.414 199.099V200.591H159.461V202.828H158.16V200.591H156.207V199.099H158.16V196.862H159.461V199.099H161.414Z" fill="white"/>
<path d="M161.414 216.996V218.487H159.461V220.724H158.16V218.487H156.207V216.996H158.16V214.759H159.461V216.996H161.414Z" fill="white"/>
<path d="M161.414 234.892V236.384H159.461V238.621H158.16V236.384H156.207V234.892H158.16V232.655H159.461V234.892H161.414Z" fill="white"/>
<path d="M161.414 252.789V254.28H159.461V256.517H158.16V254.28H156.207V252.789H158.16V250.552H159.461V252.789H161.414Z" fill="white"/>
<path d="M161.414 270.685V272.177H159.461V274.414H158.16V272.177H156.207V270.685H158.16V268.448H159.461V270.685H161.414Z" fill="white"/>
<path d="M161.414 288.582V290.073H159.461V292.31H158.16V290.073H156.207V288.582H158.16V286.345H159.461V288.582H161.414Z" fill="white"/>
<path d="M161.414 306.478V307.97H159.461V310.207H158.16V307.97H156.207V306.478H158.16V304.241H159.461V306.478H161.414Z" fill="white"/>
<path d="M161.414 324.375V325.866H159.461V328.103H158.16V325.866H156.207V324.375H158.16V322.138H159.461V324.375H161.414Z" fill="white"/>
<path d="M161.414 342.272V343.763H159.461V346H158.16V343.763H156.207V342.272H158.16V340.035H159.461V342.272H161.414Z" fill="white"/>
<path d="M145.793 2.23707V3.72845H143.841V5.96552H142.539V3.72845H140.586V2.23707H142.539V0H143.841V2.23707H145.793Z" fill="white"/>
<path d="M145.793 20.1336V21.625H143.841V23.8621H142.539V21.625H140.586V20.1336H142.539V17.8965H143.841V20.1336H145.793Z" fill="white"/>
<path d="M145.793 38.0302V39.5216H143.841V41.7586H142.539V39.5216H140.586V38.0302H142.539V35.7931H143.841V38.0302H145.793Z" fill="white"/>
<path d="M145.793 55.9267V57.418H143.841V59.6551H142.539V57.418H140.586V55.9267H142.539V53.6896H143.841V55.9267H145.793Z" fill="white"/>
<path d="M145.793 73.8233V75.3147H143.841V77.5517H142.539V75.3147H140.586V73.8233H142.539V71.5862H143.841V73.8233H145.793Z" fill="white"/>
<path d="M145.793 91.7198V93.2112H143.841V95.4482H142.539V93.2112H140.586V91.7198H142.539V89.4827H143.841V91.7198H145.793Z" fill="white"/>
<path d="M145.793 109.616V111.108H143.841V113.345H142.539V111.108H140.586V109.616H142.539V107.379H143.841V109.616H145.793Z" fill="white"/>
<path d="M145.793 127.513V129.004H143.841V131.241H142.539V129.004H140.586V127.513H142.539V125.276H143.841V127.513H145.793Z" fill="white"/>
<path d="M145.793 145.409V146.901H143.841V149.138H142.539V146.901H140.586V145.409H142.539V143.172H143.841V145.409H145.793Z" fill="white"/>
<path d="M145.793 163.306V164.797H143.841V167.034H142.539V164.797H140.586V163.306H142.539V161.069H143.841V163.306H145.793Z" fill="white"/>
<path d="M145.793 181.203V182.694H143.841V184.931H142.539V182.694H140.586V181.203H142.539V178.965H143.841V181.203H145.793Z" fill="white"/>
<path d="M145.793 199.099V200.591H143.841V202.828H142.539V200.591H140.586V199.099H142.539V196.862H143.841V199.099H145.793Z" fill="white"/>
<path d="M145.793 216.996V218.487H143.841V220.724H142.539V218.487H140.586V216.996H142.539V214.759H143.841V216.996H145.793Z" fill="white"/>
<path d="M145.793 234.892V236.384H143.841V238.621H142.539V236.384H140.586V234.892H142.539V232.655H143.841V234.892H145.793Z" fill="white"/>
<path d="M145.793 252.789V254.28H143.841V256.517H142.539V254.28H140.586V252.789H142.539V250.552H143.841V252.789H145.793Z" fill="white"/>
<path d="M145.793 270.685V272.177H143.841V274.414H142.539V272.177H140.586V270.685H142.539V268.448H143.841V270.685H145.793Z" fill="white"/>
<path d="M145.793 288.582V290.073H143.841V292.31H142.539V290.073H140.586V288.582H142.539V286.345H143.841V288.582H145.793Z" fill="white"/>
<path d="M145.793 306.478V307.97H143.841V310.207H142.539V307.97H140.586V306.478H142.539V304.241H143.841V306.478H145.793Z" fill="white"/>
<path d="M145.793 324.375V325.866H143.841V328.103H142.539V325.866H140.586V324.375H142.539V322.138H143.841V324.375H145.793Z" fill="white"/>
<path d="M145.793 342.272V343.763H143.841V346H142.539V343.763H140.586V342.272H142.539V340.035H143.841V342.272H145.793Z" fill="white"/>
<path d="M130.173 2.23707V3.72845H128.22V5.96552H126.918V3.72845H124.966V2.23707H126.918V0H128.22V2.23707H130.173Z" fill="white"/>
<path d="M130.173 20.1336V21.625H128.22V23.8621H126.918V21.625H124.966V20.1336H126.918V17.8965H128.22V20.1336H130.173Z" fill="white"/>
<path d="M130.173 38.0302V39.5216H128.22V41.7586H126.918V39.5216H124.966V38.0302H126.918V35.7931H128.22V38.0302H130.173Z" fill="white"/>
<path d="M130.173 55.9267V57.418H128.22V59.6551H126.918V57.418H124.966V55.9267H126.918V53.6896H128.22V55.9267H130.173Z" fill="white"/>
<path d="M130.173 73.8233V75.3147H128.22V77.5517H126.918V75.3147H124.966V73.8233H126.918V71.5862H128.22V73.8233H130.173Z" fill="white"/>
<path d="M130.173 91.7198V93.2112H128.22V95.4482H126.918V93.2112H124.966V91.7198H126.918V89.4827H128.22V91.7198H130.173Z" fill="white"/>
<path d="M130.173 109.616V111.108H128.22V113.345H126.918V111.108H124.966V109.616H126.918V107.379H128.22V109.616H130.173Z" fill="white"/>
<path d="M130.173 127.513V129.004H128.22V131.241H126.918V129.004H124.966V127.513H126.918V125.276H128.22V127.513H130.173Z" fill="white"/>
<path d="M130.173 145.409V146.901H128.22V149.138H126.918V146.901H124.966V145.409H126.918V143.172H128.22V145.409H130.173Z" fill="white"/>
<path d="M130.173 163.306V164.797H128.22V167.034H126.918V164.797H124.966V163.306H126.918V161.069H128.22V163.306H130.173Z" fill="white"/>
<path d="M130.173 181.203V182.694H128.22V184.931H126.918V182.694H124.966V181.203H126.918V178.965H128.22V181.203H130.173Z" fill="white"/>
<path d="M130.173 199.099V200.591H128.22V202.828H126.918V200.591H124.966V199.099H126.918V196.862H128.22V199.099H130.173Z" fill="white"/>
<path d="M130.173 216.996V218.487H128.22V220.724H126.918V218.487H124.966V216.996H126.918V214.759H128.22V216.996H130.173Z" fill="white"/>
<path d="M130.173 234.892V236.384H128.22V238.621H126.918V236.384H124.966V234.892H126.918V232.655H128.22V234.892H130.173Z" fill="white"/>
<path d="M130.173 252.789V254.28H128.22V256.517H126.918V254.28H124.966V252.789H126.918V250.552H128.22V252.789H130.173Z" fill="white"/>
<path d="M130.173 270.685V272.177H128.22V274.414H126.918V272.177H124.966V270.685H126.918V268.448H128.22V270.685H130.173Z" fill="white"/>
<path d="M130.173 288.582V290.073H128.22V292.31H126.918V290.073H124.966V288.582H126.918V286.345H128.22V288.582H130.173Z" fill="white"/>
<path d="M130.173 306.478V307.97H128.22V310.207H126.918V307.97H124.966V306.478H126.918V304.241H128.22V306.478H130.173Z" fill="white"/>
<path d="M130.173 324.375V325.866H128.22V328.103H126.918V325.866H124.966V324.375H126.918V322.138H128.22V324.375H130.173Z" fill="white"/>
<path d="M130.173 342.272V343.763H128.22V346H126.918V343.763H124.966V342.272H126.918V340.035H128.22V342.272H130.173Z" fill="white"/>
<path d="M114.552 2.23707V3.72845H112.599V5.96552H111.298V3.72845H109.345V2.23707H111.298V0H112.599V2.23707H114.552Z" fill="white"/>
<path d="M114.552 20.1336V21.625H112.599V23.8621H111.298V21.625H109.345V20.1336H111.298V17.8965H112.599V20.1336H114.552Z" fill="white"/>
<path d="M114.552 38.0302V39.5216H112.599V41.7586H111.298V39.5216H109.345V38.0302H111.298V35.7931H112.599V38.0302H114.552Z" fill="white"/>
<path d="M114.552 55.9267V57.418H112.599V59.6551H111.298V57.418H109.345V55.9267H111.298V53.6896H112.599V55.9267H114.552Z" fill="white"/>
<path d="M114.552 73.8233V75.3147H112.599V77.5517H111.298V75.3147H109.345V73.8233H111.298V71.5862H112.599V73.8233H114.552Z" fill="white"/>
<path d="M114.552 91.7198V93.2112H112.599V95.4482H111.298V93.2112H109.345V91.7198H111.298V89.4827H112.599V91.7198H114.552Z" fill="white"/>
<path d="M114.552 109.616V111.108H112.599V113.345H111.298V111.108H109.345V109.616H111.298V107.379H112.599V109.616H114.552Z" fill="white"/>
<path d="M114.552 127.513V129.004H112.599V131.241H111.298V129.004H109.345V127.513H111.298V125.276H112.599V127.513H114.552Z" fill="white"/>
<path d="M114.552 145.409V146.901H112.599V149.138H111.298V146.901H109.345V145.409H111.298V143.172H112.599V145.409H114.552Z" fill="white"/>
<path d="M114.552 163.306V164.797H112.599V167.034H111.298V164.797H109.345V163.306H111.298V161.069H112.599V163.306H114.552Z" fill="white"/>
<path d="M114.552 181.203V182.694H112.599V184.931H111.298V182.694H109.345V181.203H111.298V178.965H112.599V181.203H114.552Z" fill="white"/>
<path d="M114.552 199.099V200.591H112.599V202.828H111.298V200.591H109.345V199.099H111.298V196.862H112.599V199.099H114.552Z" fill="white"/>
<path d="M114.552 216.996V218.487H112.599V220.724H111.298V218.487H109.345V216.996H111.298V214.759H112.599V216.996H114.552Z" fill="white"/>
<path d="M114.552 234.892V236.384H112.599V238.621H111.298V236.384H109.345V234.892H111.298V232.655H112.599V234.892H114.552Z" fill="white"/>
<path d="M114.552 252.789V254.28H112.599V256.517H111.298V254.28H109.345V252.789H111.298V250.552H112.599V252.789H114.552Z" fill="white"/>
<path d="M114.552 270.685V272.177H112.599V274.414H111.298V272.177H109.345V270.685H111.298V268.448H112.599V270.685H114.552Z" fill="white"/>
<path d="M114.552 288.582V290.073H112.599V292.31H111.298V290.073H109.345V288.582H111.298V286.345H112.599V288.582H114.552Z" fill="white"/>
<path d="M114.552 306.478V307.97H112.599V310.207H111.298V307.97H109.345V306.478H111.298V304.241H112.599V306.478H114.552Z" fill="white"/>
<path d="M114.552 324.375V325.866H112.599V328.103H111.298V325.866H109.345V324.375H111.298V322.138H112.599V324.375H114.552Z" fill="white"/>
<path d="M114.552 342.272V343.763H112.599V346H111.298V343.763H109.345V342.272H111.298V340.035H112.599V342.272H114.552Z" fill="white"/>
<path d="M98.9308 2.23707V3.72845H96.9782V5.96552H95.6765V3.72845H93.7239V2.23707H95.6765V0H96.9782V2.23707H98.9308Z" fill="white"/>
<path d="M98.9308 20.1336V21.625H96.9782V23.8621H95.6765V21.625H93.7239V20.1336H95.6765V17.8965H96.9782V20.1336H98.9308Z" fill="white"/>
<path d="M98.9308 38.0302V39.5216H96.9782V41.7586H95.6765V39.5216H93.7239V38.0302H95.6765V35.7931H96.9782V38.0302H98.9308Z" fill="white"/>
<path d="M98.9308 55.9267V57.418H96.9782V59.6551H95.6765V57.418H93.7239V55.9267H95.6765V53.6896H96.9782V55.9267H98.9308Z" fill="white"/>
<path d="M98.9308 73.8233V75.3147H96.9782V77.5517H95.6765V75.3147H93.7239V73.8233H95.6765V71.5862H96.9782V73.8233H98.9308Z" fill="white"/>
<path d="M98.9308 91.7198V93.2112H96.9782V95.4482H95.6765V93.2112H93.7239V91.7198H95.6765V89.4827H96.9782V91.7198H98.9308Z" fill="white"/>
<path d="M98.9308 109.616V111.108H96.9782V113.345H95.6765V111.108H93.7239V109.616H95.6765V107.379H96.9782V109.616H98.9308Z" fill="white"/>
<path d="M98.9308 127.513V129.004H96.9782V131.241H95.6765V129.004H93.7239V127.513H95.6765V125.276H96.9782V127.513H98.9308Z" fill="white"/>
<path d="M98.9308 145.409V146.901H96.9782V149.138H95.6765V146.901H93.7239V145.409H95.6765V143.172H96.9782V145.409H98.9308Z" fill="white"/>
<path d="M98.9308 163.306V164.797H96.9782V167.034H95.6765V164.797H93.7239V163.306H95.6765V161.069H96.9782V163.306H98.9308Z" fill="white"/>
<path d="M98.9308 181.203V182.694H96.9782V184.931H95.6765V182.694H93.7239V181.203H95.6765V178.965H96.9782V181.203H98.9308Z" fill="white"/>
<path d="M98.9308 199.099V200.591H96.9782V202.828H95.6765V200.591H93.7239V199.099H95.6765V196.862H96.9782V199.099H98.9308Z" fill="white"/>
<path d="M98.9308 216.996V218.487H96.9782V220.724H95.6765V218.487H93.7239V216.996H95.6765V214.759H96.9782V216.996H98.9308Z" fill="white"/>
<path d="M98.9308 234.892V236.384H96.9782V238.621H95.6765V236.384H93.7239V234.892H95.6765V232.655H96.9782V234.892H98.9308Z" fill="white"/>
<path d="M98.9308 252.789V254.28H96.9782V256.517H95.6765V254.28H93.7239V252.789H95.6765V250.552H96.9782V252.789H98.9308Z" fill="white"/>
<path d="M98.9308 270.685V272.177H96.9782V274.414H95.6765V272.177H93.7239V270.685H95.6765V268.448H96.9782V270.685H98.9308Z" fill="white"/>
<path d="M98.9308 288.582V290.073H96.9782V292.31H95.6765V290.073H93.7239V288.582H95.6765V286.345H96.9782V288.582H98.9308Z" fill="white"/>
<path d="M98.9308 306.478V307.97H96.9782V310.207H95.6765V307.97H93.7239V306.478H95.6765V304.241H96.9782V306.478H98.9308Z" fill="white"/>
<path d="M98.9308 324.375V325.866H96.9782V328.103H95.6765V325.866H93.7239V324.375H95.6765V322.138H96.9782V324.375H98.9308Z" fill="white"/>
<path d="M98.9308 342.272V343.763H96.9782V346H95.6765V343.763H93.7239V342.272H95.6765V340.035H96.9782V342.272H98.9308Z" fill="white"/>
<path d="M83.3104 2.23707V3.72845H81.3578V5.96552H80.0561V3.72845H78.1035V2.23707H80.0561V0H81.3578V2.23707H83.3104Z" fill="white"/>
<path d="M83.3104 20.1336V21.625H81.3578V23.8621H80.0561V21.625H78.1035V20.1336H80.0561V17.8965H81.3578V20.1336H83.3104Z" fill="white"/>
<path d="M83.3104 38.0302V39.5216H81.3578V41.7586H80.0561V39.5216H78.1035V38.0302H80.0561V35.7931H81.3578V38.0302H83.3104Z" fill="white"/>
<path d="M83.3104 55.9267V57.418H81.3578V59.6551H80.0561V57.418H78.1035V55.9267H80.0561V53.6896H81.3578V55.9267H83.3104Z" fill="white"/>
<path d="M83.3104 73.8233V75.3147H81.3578V77.5517H80.0561V75.3147H78.1035V73.8233H80.0561V71.5862H81.3578V73.8233H83.3104Z" fill="white"/>
<path d="M83.3104 91.7198V93.2112H81.3578V95.4482H80.0561V93.2112H78.1035V91.7198H80.0561V89.4827H81.3578V91.7198H83.3104Z" fill="white"/>
<path d="M83.3104 109.616V111.108H81.3578V113.345H80.0561V111.108H78.1035V109.616H80.0561V107.379H81.3578V109.616H83.3104Z" fill="white"/>
<path d="M83.3104 127.513V129.004H81.3578V131.241H80.0561V129.004H78.1035V127.513H80.0561V125.276H81.3578V127.513H83.3104Z" fill="white"/>
<path d="M83.3104 145.409V146.901H81.3578V149.138H80.0561V146.901H78.1035V145.409H80.0561V143.172H81.3578V145.409H83.3104Z" fill="white"/>
<path d="M83.3104 163.306V164.797H81.3578V167.034H80.0561V164.797H78.1035V163.306H80.0561V161.069H81.3578V163.306H83.3104Z" fill="white"/>
<path d="M83.3104 181.203V182.694H81.3578V184.931H80.0561V182.694H78.1035V181.203H80.0561V178.965H81.3578V181.203H83.3104Z" fill="white"/>
<path d="M83.3104 199.099V200.591H81.3578V202.828H80.0561V200.591H78.1035V199.099H80.0561V196.862H81.3578V199.099H83.3104Z" fill="white"/>
<path d="M83.3104 216.996V218.487H81.3578V220.724H80.0561V218.487H78.1035V216.996H80.0561V214.759H81.3578V216.996H83.3104Z" fill="white"/>
<path d="M83.3104 234.892V236.384H81.3578V238.621H80.0561V236.384H78.1035V234.892H80.0561V232.655H81.3578V234.892H83.3104Z" fill="white"/>
<path d="M83.3104 252.789V254.28H81.3578V256.517H80.0561V254.28H78.1035V252.789H80.0561V250.552H81.3578V252.789H83.3104Z" fill="white"/>
<path d="M83.3104 270.685V272.177H81.3578V274.414H80.0561V272.177H78.1035V270.685H80.0561V268.448H81.3578V270.685H83.3104Z" fill="white"/>
<path d="M83.3104 288.582V290.073H81.3578V292.31H80.0561V290.073H78.1035V288.582H80.0561V286.345H81.3578V288.582H83.3104Z" fill="white"/>
<path d="M83.3104 306.478V307.97H81.3578V310.207H80.0561V307.97H78.1035V306.478H80.0561V304.241H81.3578V306.478H83.3104Z" fill="white"/>
<path d="M83.3104 324.375V325.866H81.3578V328.103H80.0561V325.866H78.1035V324.375H80.0561V322.138H81.3578V324.375H83.3104Z" fill="white"/>
<path d="M83.3104 342.272V343.763H81.3578V346H80.0561V343.763H78.1035V342.272H80.0561V340.035H81.3578V342.272H83.3104Z" fill="white"/>
<path d="M67.6897 2.23707V3.72845H65.7371V5.96552H64.4354V3.72845H62.4828V2.23707H64.4354V0H65.7371V2.23707H67.6897Z" fill="white"/>
<path d="M67.6897 20.1336V21.625H65.7371V23.8621H64.4354V21.625H62.4828V20.1336H64.4354V17.8965H65.7371V20.1336H67.6897Z" fill="white"/>
<path d="M67.6897 38.0302V39.5216H65.7371V41.7586H64.4354V39.5216H62.4828V38.0302H64.4354V35.7931H65.7371V38.0302H67.6897Z" fill="white"/>
<path d="M67.6897 55.9267V57.418H65.7371V59.6551H64.4354V57.418H62.4828V55.9267H64.4354V53.6896H65.7371V55.9267H67.6897Z" fill="white"/>
<path d="M67.6897 73.8233V75.3147H65.7371V77.5517H64.4354V75.3147H62.4828V73.8233H64.4354V71.5862H65.7371V73.8233H67.6897Z" fill="white"/>
<path d="M67.6897 91.7198V93.2112H65.7371V95.4482H64.4354V93.2112H62.4828V91.7198H64.4354V89.4827H65.7371V91.7198H67.6897Z" fill="white"/>
<path d="M67.6897 109.616V111.108H65.7371V113.345H64.4354V111.108H62.4828V109.616H64.4354V107.379H65.7371V109.616H67.6897Z" fill="white"/>
<path d="M67.6897 127.513V129.004H65.7371V131.241H64.4354V129.004H62.4828V127.513H64.4354V125.276H65.7371V127.513H67.6897Z" fill="white"/>
<path d="M67.6897 145.409V146.901H65.7371V149.138H64.4354V146.901H62.4828V145.409H64.4354V143.172H65.7371V145.409H67.6897Z" fill="white"/>
<path d="M67.6897 163.306V164.797H65.7371V167.034H64.4354V164.797H62.4828V163.306H64.4354V161.069H65.7371V163.306H67.6897Z" fill="white"/>
<path d="M67.6897 181.203V182.694H65.7371V184.931H64.4354V182.694H62.4828V181.203H64.4354V178.965H65.7371V181.203H67.6897Z" fill="white"/>
<path d="M67.6897 199.099V200.591H65.7371V202.828H64.4354V200.591H62.4828V199.099H64.4354V196.862H65.7371V199.099H67.6897Z" fill="white"/>
<path d="M67.6897 216.996V218.487H65.7371V220.724H64.4354V218.487H62.4828V216.996H64.4354V214.759H65.7371V216.996H67.6897Z" fill="white"/>
<path d="M67.6897 234.892V236.384H65.7371V238.621H64.4354V236.384H62.4828V234.892H64.4354V232.655H65.7371V234.892H67.6897Z" fill="white"/>
<path d="M67.6897 252.789V254.28H65.7371V256.517H64.4354V254.28H62.4828V252.789H64.4354V250.552H65.7371V252.789H67.6897Z" fill="white"/>
<path d="M67.6897 270.685V272.177H65.7371V274.414H64.4354V272.177H62.4828V270.685H64.4354V268.448H65.7371V270.685H67.6897Z" fill="white"/>
<path d="M67.6897 288.582V290.073H65.7371V292.31H64.4354V290.073H62.4828V288.582H64.4354V286.345H65.7371V288.582H67.6897Z" fill="white"/>
<path d="M67.6897 306.478V307.97H65.7371V310.207H64.4354V307.97H62.4828V306.478H64.4354V304.241H65.7371V306.478H67.6897Z" fill="white"/>
<path d="M67.6897 324.375V325.866H65.7371V328.103H64.4354V325.866H62.4828V324.375H64.4354V322.138H65.7371V324.375H67.6897Z" fill="white"/>
<path d="M67.6897 342.272V343.763H65.7371V346H64.4354V343.763H62.4828V342.272H64.4354V340.035H65.7371V342.272H67.6897Z" fill="white"/>
<path d="M52.069 2.23707V3.72845H50.1164V5.96552H48.8147V3.72845H46.8621V2.23707H48.8147V0H50.1164V2.23707H52.069Z" fill="white"/>
<path d="M52.069 20.1336V21.625H50.1164V23.8621H48.8147V21.625H46.8621V20.1336H48.8147V17.8965H50.1164V20.1336H52.069Z" fill="white"/>
<path d="M52.069 38.0302V39.5216H50.1164V41.7586H48.8147V39.5216H46.8621V38.0302H48.8147V35.7931H50.1164V38.0302H52.069Z" fill="white"/>
<path d="M52.069 55.9267V57.418H50.1164V59.6551H48.8147V57.418H46.8621V55.9267H48.8147V53.6896H50.1164V55.9267H52.069Z" fill="white"/>
<path d="M52.069 73.8233V75.3147H50.1164V77.5517H48.8147V75.3147H46.8621V73.8233H48.8147V71.5862H50.1164V73.8233H52.069Z" fill="white"/>
<path d="M52.069 91.7198V93.2112H50.1164V95.4482H48.8147V93.2112H46.8621V91.7198H48.8147V89.4827H50.1164V91.7198H52.069Z" fill="white"/>
<path d="M52.069 109.616V111.108H50.1164V113.345H48.8147V111.108H46.8621V109.616H48.8147V107.379H50.1164V109.616H52.069Z" fill="white"/>
<path d="M52.069 127.513V129.004H50.1164V131.241H48.8147V129.004H46.8621V127.513H48.8147V125.276H50.1164V127.513H52.069Z" fill="white"/>
<path d="M52.069 145.409V146.901H50.1164V149.138H48.8147V146.901H46.8621V145.409H48.8147V143.172H50.1164V145.409H52.069Z" fill="white"/>
<path d="M52.069 163.306V164.797H50.1164V167.034H48.8147V164.797H46.8621V163.306H48.8147V161.069H50.1164V163.306H52.069Z" fill="white"/>
<path d="M52.069 181.203V182.694H50.1164V184.931H48.8147V182.694H46.8621V181.203H48.8147V178.965H50.1164V181.203H52.069Z" fill="white"/>
<path d="M52.069 199.099V200.591H50.1164V202.828H48.8147V200.591H46.8621V199.099H48.8147V196.862H50.1164V199.099H52.069Z" fill="white"/>
<path d="M52.069 216.996V218.487H50.1164V220.724H48.8147V218.487H46.8621V216.996H48.8147V214.759H50.1164V216.996H52.069Z" fill="white"/>
<path d="M52.069 234.892V236.384H50.1164V238.621H48.8147V236.384H46.8621V234.892H48.8147V232.655H50.1164V234.892H52.069Z" fill="white"/>
<path d="M52.069 252.789V254.28H50.1164V256.517H48.8147V254.28H46.8621V252.789H48.8147V250.552H50.1164V252.789H52.069Z" fill="white"/>
<path d="M52.069 270.685V272.177H50.1164V274.414H48.8147V272.177H46.8621V270.685H48.8147V268.448H50.1164V270.685H52.069Z" fill="white"/>
<path d="M52.069 288.582V290.073H50.1164V292.31H48.8147V290.073H46.8621V288.582H48.8147V286.345H50.1164V288.582H52.069Z" fill="white"/>
<path d="M52.069 306.478V307.97H50.1164V310.207H48.8147V307.97H46.8621V306.478H48.8147V304.241H50.1164V306.478H52.069Z" fill="white"/>
<path d="M52.069 324.375V325.866H50.1164V328.103H48.8147V325.866H46.8621V324.375H48.8147V322.138H50.1164V324.375H52.069Z" fill="white"/>
<path d="M52.069 342.272V343.763H50.1164V346H48.8147V343.763H46.8621V342.272H48.8147V340.035H50.1164V342.272H52.069Z" fill="white"/>
<path d="M36.4484 2.23707V3.72845H34.4958V5.96552H33.194V3.72845H31.2415V2.23707H33.194V0H34.4958V2.23707H36.4484Z" fill="white"/>
<path d="M36.4484 20.1336V21.625H34.4958V23.8621H33.194V21.625H31.2415V20.1336H33.194V17.8965H34.4958V20.1336H36.4484Z" fill="white"/>
<path d="M36.4484 38.0302V39.5216H34.4958V41.7586H33.194V39.5216H31.2415V38.0302H33.194V35.7931H34.4958V38.0302H36.4484Z" fill="white"/>
<path d="M36.4484 55.9267V57.418H34.4958V59.6551H33.194V57.418H31.2415V55.9267H33.194V53.6896H34.4958V55.9267H36.4484Z" fill="white"/>
<path d="M36.4484 73.8233V75.3147H34.4958V77.5517H33.194V75.3147H31.2415V73.8233H33.194V71.5862H34.4958V73.8233H36.4484Z" fill="white"/>
<path d="M36.4484 91.7198V93.2112H34.4958V95.4482H33.194V93.2112H31.2415V91.7198H33.194V89.4827H34.4958V91.7198H36.4484Z" fill="white"/>
<path d="M36.4484 109.616V111.108H34.4958V113.345H33.194V111.108H31.2415V109.616H33.194V107.379H34.4958V109.616H36.4484Z" fill="white"/>
<path d="M36.4484 127.513V129.004H34.4958V131.241H33.194V129.004H31.2415V127.513H33.194V125.276H34.4958V127.513H36.4484Z" fill="white"/>
<path d="M36.4484 145.409V146.901H34.4958V149.138H33.194V146.901H31.2415V145.409H33.194V143.172H34.4958V145.409H36.4484Z" fill="white"/>
<path d="M36.4484 163.306V164.797H34.4958V167.034H33.194V164.797H31.2415V163.306H33.194V161.069H34.4958V163.306H36.4484Z" fill="white"/>
<path d="M36.4484 181.203V182.694H34.4958V184.931H33.194V182.694H31.2415V181.203H33.194V178.965H34.4958V181.203H36.4484Z" fill="white"/>
<path d="M36.4484 199.099V200.591H34.4958V202.828H33.194V200.591H31.2415V199.099H33.194V196.862H34.4958V199.099H36.4484Z" fill="white"/>
<path d="M36.4484 216.996V218.487H34.4958V220.724H33.194V218.487H31.2415V216.996H33.194V214.759H34.4958V216.996H36.4484Z" fill="white"/>
<path d="M36.4484 234.892V236.384H34.4958V238.621H33.194V236.384H31.2415V234.892H33.194V232.655H34.4958V234.892H36.4484Z" fill="white"/>
<path d="M36.4484 252.789V254.28H34.4958V256.517H33.194V254.28H31.2415V252.789H33.194V250.552H34.4958V252.789H36.4484Z" fill="white"/>
<path d="M36.4484 270.685V272.177H34.4958V274.414H33.194V272.177H31.2415V270.685H33.194V268.448H34.4958V270.685H36.4484Z" fill="white"/>
<path d="M36.4484 288.582V290.073H34.4958V292.31H33.194V290.073H31.2415V288.582H33.194V286.345H34.4958V288.582H36.4484Z" fill="white"/>
<path d="M36.4484 306.478V307.97H34.4958V310.207H33.194V307.97H31.2415V306.478H33.194V304.241H34.4958V306.478H36.4484Z" fill="white"/>
<path d="M36.4484 324.375V325.866H34.4958V328.103H33.194V325.866H31.2415V324.375H33.194V322.138H34.4958V324.375H36.4484Z" fill="white"/>
<path d="M36.4484 342.272V343.763H34.4958V346H33.194V343.763H31.2415V342.272H33.194V340.035H34.4958V342.272H36.4484Z" fill="white"/>
<path d="M20.8276 2.23707V3.72845H18.875V5.96552H17.5733V3.72845H15.6207V2.23707H17.5733V0H18.875V2.23707H20.8276Z" fill="white"/>
<path d="M20.8276 20.1336V21.625H18.875V23.8621H17.5733V21.625H15.6207V20.1336H17.5733V17.8965H18.875V20.1336H20.8276Z" fill="white"/>
<path d="M20.8276 38.0302V39.5216H18.875V41.7586H17.5733V39.5216H15.6207V38.0302H17.5733V35.7931H18.875V38.0302H20.8276Z" fill="white"/>
<path d="M20.8276 55.9267V57.418H18.875V59.6551H17.5733V57.418H15.6207V55.9267H17.5733V53.6896H18.875V55.9267H20.8276Z" fill="white"/>
<path d="M20.8276 73.8233V75.3147H18.875V77.5517H17.5733V75.3147H15.6207V73.8233H17.5733V71.5862H18.875V73.8233H20.8276Z" fill="white"/>
<path d="M20.8276 91.7198V93.2112H18.875V95.4482H17.5733V93.2112H15.6207V91.7198H17.5733V89.4827H18.875V91.7198H20.8276Z" fill="white"/>
<path d="M20.8276 109.616V111.108H18.875V113.345H17.5733V111.108H15.6207V109.616H17.5733V107.379H18.875V109.616H20.8276Z" fill="white"/>
<path d="M20.8276 127.513V129.004H18.875V131.241H17.5733V129.004H15.6207V127.513H17.5733V125.276H18.875V127.513H20.8276Z" fill="white"/>
<path d="M20.8276 145.409V146.901H18.875V149.138H17.5733V146.901H15.6207V145.409H17.5733V143.172H18.875V145.409H20.8276Z" fill="white"/>
<path d="M20.8276 163.306V164.797H18.875V167.034H17.5733V164.797H15.6207V163.306H17.5733V161.069H18.875V163.306H20.8276Z" fill="white"/>
<path d="M20.8276 181.203V182.694H18.875V184.931H17.5733V182.694H15.6207V181.203H17.5733V178.965H18.875V181.203H20.8276Z" fill="white"/>
<path d="M20.8276 199.099V200.591H18.875V202.828H17.5733V200.591H15.6207V199.099H17.5733V196.862H18.875V199.099H20.8276Z" fill="white"/>
<path d="M20.8276 216.996V218.487H18.875V220.724H17.5733V218.487H15.6207V216.996H17.5733V214.759H18.875V216.996H20.8276Z" fill="white"/>
<path d="M20.8276 234.892V236.384H18.875V238.621H17.5733V236.384H15.6207V234.892H17.5733V232.655H18.875V234.892H20.8276Z" fill="white"/>
<path d="M20.8276 252.789V254.28H18.875V256.517H17.5733V254.28H15.6207V252.789H17.5733V250.552H18.875V252.789H20.8276Z" fill="white"/>
<path d="M20.8276 270.685V272.177H18.875V274.414H17.5733V272.177H15.6207V270.685H17.5733V268.448H18.875V270.685H20.8276Z" fill="white"/>
<path d="M20.8276 288.582V290.073H18.875V292.31H17.5733V290.073H15.6207V288.582H17.5733V286.345H18.875V288.582H20.8276Z" fill="white"/>
<path d="M20.8276 306.478V307.97H18.875V310.207H17.5733V307.97H15.6207V306.478H17.5733V304.241H18.875V306.478H20.8276Z" fill="white"/>
<path d="M20.8276 324.375V325.866H18.875V328.103H17.5733V325.866H15.6207V324.375H17.5733V322.138H18.875V324.375H20.8276Z" fill="white"/>
<path d="M20.8276 342.272V343.763H18.875V346H17.5733V343.763H15.6207V342.272H17.5733V340.035H18.875V342.272H20.8276Z" fill="white"/>
<path d="M5.20691 2.23707V3.72845H3.25432V5.96552H1.95259V3.72845H0V2.23707H1.95259V0H3.25432V2.23707H5.20691Z" fill="white"/>
<path d="M5.20691 20.1336V21.625H3.25432V23.8621H1.95259V21.625H0V20.1336H1.95259V17.8965H3.25432V20.1336H5.20691Z" fill="white"/>
<path d="M5.20691 38.0302V39.5216H3.25432V41.7586H1.95259V39.5216H0V38.0302H1.95259V35.7931H3.25432V38.0302H5.20691Z" fill="white"/>
<path d="M5.20691 55.9267V57.418H3.25432V59.6551H1.95259V57.418H0V55.9267H1.95259V53.6896H3.25432V55.9267H5.20691Z" fill="white"/>
<path d="M5.20691 73.8233V75.3147H3.25432V77.5517H1.95259V75.3147H0V73.8233H1.95259V71.5862H3.25432V73.8233H5.20691Z" fill="white"/>
<path d="M5.20691 91.7198V93.2112H3.25432V95.4482H1.95259V93.2112H0V91.7198H1.95259V89.4827H3.25432V91.7198H5.20691Z" fill="white"/>
<path d="M5.20691 109.616V111.108H3.25432V113.345H1.95259V111.108H0V109.616H1.95259V107.379H3.25432V109.616H5.20691Z" fill="white"/>
<path d="M5.20691 127.513V129.004H3.25432V131.241H1.95259V129.004H0V127.513H1.95259V125.276H3.25432V127.513H5.20691Z" fill="white"/>
<path d="M5.20691 145.409V146.901H3.25432V149.138H1.95259V146.901H0V145.409H1.95259V143.172H3.25432V145.409H5.20691Z" fill="white"/>
<path d="M5.20691 163.306V164.797H3.25432V167.034H1.95259V164.797H0V163.306H1.95259V161.069H3.25432V163.306H5.20691Z" fill="white"/>
<path d="M5.20691 181.203V182.694H3.25432V184.931H1.95259V182.694H0V181.203H1.95259V178.965H3.25432V181.203H5.20691Z" fill="white"/>
<path d="M5.20691 199.099V200.591H3.25432V202.828H1.95259V200.591H0V199.099H1.95259V196.862H3.25432V199.099H5.20691Z" fill="white"/>
<path d="M5.20691 216.996V218.487H3.25432V220.724H1.95259V218.487H0V216.996H1.95259V214.759H3.25432V216.996H5.20691Z" fill="white"/>
<path d="M5.20691 234.892V236.384H3.25432V238.621H1.95259V236.384H0V234.892H1.95259V232.655H3.25432V234.892H5.20691Z" fill="white"/>
<path d="M5.20691 252.789V254.28H3.25432V256.517H1.95259V254.28H0V252.789H1.95259V250.552H3.25432V252.789H5.20691Z" fill="white"/>
<path d="M5.20691 270.685V272.177H3.25432V274.414H1.95259V272.177H0V270.685H1.95259V268.448H3.25432V270.685H5.20691Z" fill="white"/>
<path d="M5.20691 288.582V290.073H3.25432V292.31H1.95259V290.073H0V288.582H1.95259V286.345H3.25432V288.582H5.20691Z" fill="white"/>
<path d="M5.20691 306.478V307.97H3.25432V310.207H1.95259V307.97H0V306.478H1.95259V304.241H3.25432V306.478H5.20691Z" fill="white"/>
<path d="M5.20691 324.375V325.866H3.25432V328.103H1.95259V325.866H0V324.375H1.95259V322.138H3.25432V324.375H5.20691Z" fill="white"/>
<path d="M5.20691 342.272V343.763H3.25432V346H1.95259V343.763H0V342.272H1.95259V340.035H3.25432V342.272H5.20691Z" fill="white"/>
</g>
</svg>
